<?xml version="1.0" encoding="utf-8"?>
<!-- Generator: Adobe Illustrator 21.1.0, SVG Export Plug-In . SVG Version: 6.00 Build 0)  -->
<svg version="1.1" id="Gold" xmlns="http://www.w3.org/2000/svg" xmlns:xlink="http://www.w3.org/1999/xlink" x="0px" y="0px"
	 viewBox="0 0 52.2 40" style="enable-background:new 0 0 52.2 40;" xml:space="preserve">
<style type="text/css">
	.st0{fill:#D09B2C;}
</style>
<g>
	<path class="st0" d="M20.3,31.3c1.5-0.8,2.2-2.3,2.2-4c0-2.9-2.2-4.8-5.3-4.8c-3.1,0-5.3,1.9-5.3,4.8c0,1.7,0.7,3.1,2.2,3.9
		c-1.4,0.8-2.2,2.3-2.2,3.9c0,2.9,2.2,4.8,5.3,4.8c3.1,0,5.3-1.9,5.3-4.8C22.5,33.6,21.7,32.1,20.3,31.3z M17.2,36.5
		c-1.3,0-2.1-0.7-2.1-1.7c0-1.1,0.9-1.8,2.1-1.8c1.2,0,2.1,0.6,2.1,1.8C19.2,35.8,18.4,36.5,17.2,36.5z M17.2,29.5
		c-1.2,0-2.1-0.7-2.1-1.8c0-1,0.8-1.7,2.1-1.7c1.3,0,2.1,0.7,2.1,1.7C19.2,28.9,18.3,29.5,17.2,29.5z"/>
	<polygon class="st0" points="33.2,0.6 48.1,0.6 48.1,3.7 42.3,3.7 42.3,16.8 39,16.8 39,3.7 33.2,3.7 	"/>
	<rect x="46.1" y="13.7" class="st0" width="3.1" height="3.1"/>
	<polygon class="st0" points="1.1,0.6 13.9,0.6 13.9,3.7 4.5,3.7 4.5,7.1 11.1,7.1 11.1,10.2 4.5,10.2 4.5,13.7 13.9,13.7 
		13.9,16.8 1.1,16.8 	"/>
	<polygon class="st0" points="8.6,39.4 5.3,39.4 5.3,28.2 2.3,31.2 0,28.9 5.8,23.2 8.6,23.2 	"/>
	<path class="st0" d="M19,12.2h3.4c0,0.9,1.3,1.8,2.6,1.8c1.1,0,2-0.8,2-1.8c0-0.3,0-1.3-2.5-1.9c-4.4-1.1-5.3-3.5-5.3-5.3
		c0-2.9,2.3-5.1,5.4-5.1c3.4,0,6,2.3,6,5.2h-3.4c0-1-1.2-1.8-2.6-1.8c-1.2,0-2,0.7-2,1.7c0,0.9,0.9,1.6,2.8,2.1c4.4,1.1,5,3.7,5,5.2
		c0,2.8-2.4,5.1-5.3,5.1C21.8,17.5,19,15.1,19,12.2z"/>
	<polygon class="st0" points="36.7,25.9 29.6,39.4 25.9,39.4 32.8,26.3 25.6,26.3 25.6,23.2 36.7,23.2 	"/>
	<polygon class="st0" points="52.2,34.4 49.4,34.4 49.4,39.4 46,39.4 46,34.4 38.2,34.4 38.2,31.3 40.7,27.5 44,27.5 41.6,31.3 
		46,31.3 46,23.2 49.4,23.2 49.4,31.3 52.2,31.3 	"/>
</g>
</svg>
