<?xml version="1.0" encoding="utf-8"?>
<!-- Generator: Adobe Illustrator 21.1.0, SVG Export Plug-In . SVG Version: 6.00 Build 0)  -->
<svg version="1.1" id="Gold" xmlns="http://www.w3.org/2000/svg" xmlns:xlink="http://www.w3.org/1999/xlink" x="0px" y="0px"
	 viewBox="0 0 125 125" style="enable-background:new 0 0 125 125;" xml:space="preserve">
<style type="text/css">
	.st0{fill:#D09B2C;}
</style>
<path id="Seal__x28_Stand_Alone_x29_" class="st0" d="M12.6,48.7c0.7,0.9,0.9,2.1,0.7,3.3c-0.5,2.2-2.6,3.6-4.8,3.2
	c-2.2-0.5-3.5-2.6-3.1-4.8c0.3-1.2,1-2.1,1.9-2.7L8.2,49c-0.6,0.3-1.1,0.9-1.2,1.6c-0.3,1.3,0.6,2.6,1.9,2.9s2.6-0.6,2.9-1.9
	c0.2-0.7,0-1.4-0.5-2L12.6,48.7z M13.4,39.2c-1.2-0.5-2.7,0-3.2,1.3c-0.5,1.2,0,2.7,1.3,3.2c1.2,0.5,2.7,0,3.2-1.3
	C15.2,41.1,14.6,39.7,13.4,39.2 M8.8,39.8c0.9-2.1,3.3-3.1,5.3-2.2c2,0.9,2.9,3.3,2.1,5.3c-0.9,2.1-3.3,3.1-5.3,2.2
	C8.8,44.3,7.9,41.9,8.8,39.8 M13.8,31.3l-0.9,1.3l6.1,4.2l3.3-4.8l-1.2-0.8l-2.4,3.5L13.8,31.3z M24.8,23.4c-1-0.9-2.5-0.9-3.4,0
	c-0.9,1-0.9,2.5,0.1,3.4s2.5,0.9,3.4,0C25.8,25.9,25.7,24.3,24.8,23.4 M20.2,22.4c1.6-1.6,4.1-1.7,5.7-0.2c1.6,1.5,1.6,4.1,0,5.7
	c-1.6,1.6-4.1,1.7-5.7,0.2C18.6,26.5,18.6,24,20.2,22.4 M29.9,19.6l1.7-1.2c0.4-0.5,0.5-1.1,0.2-1.6c-0.4-0.5-1-0.6-1.6-0.4
	l-1.7,1.2L29.9,19.6z M33,15.8c0.7,1,0.6,2.4-0.2,3.3l2.4,1l-1.3,0.9l-2.3-1l-0.9,0.7l1.2,1.7l-1.3,0.9l-4.3-6.1l3-2.1
	C30.5,14.3,32.2,14.6,33,15.8 M39.9,14.2l-1.7-1.7l0.2,2.4L39.9,14.2z M37.8,10.1l5.9,5.6l-1.4,0.7L41,15.2l-2.5,1.2l0.1,1.7
	l-1.4,0.7l-0.6-8.1L37.8,10.1z M48.2,12.7c1.2-0.3,1.9-1.6,1.6-2.8C49.5,8.7,48.2,8,47,8.3l-1.3,0.4l1.2,4.4L48.2,12.7 M46.7,6.9
	c2.1-0.6,4,0.6,4.6,2.6c0.5,2-0.5,4-2.6,4.6l-1.4,0.4l0,0l-1.5,0.4l-2-7.2L45,7.4l0,0L46.7,6.9 M60.2,8.2c-0.1-1.3-1.2-2.4-2.5-2.3
	c-1.3,0.1-2.4,1.2-2.3,2.6c0.1,1.3,1.2,2.4,2.5,2.3C59.2,10.7,60.2,9.6,60.2,8.2 M57.6,4.3c2.3-0.1,4.2,1.6,4.3,3.8
	c0.1,2.2-1.7,4.1-3.9,4.2c-2.3,0.1-4.2-1.6-4.3-3.8C53.6,6.3,55.3,4.4,57.6,4.3 M78.4,12.1c-0.6,0.4-1.3,0.5-2,0.4
	c-1.3-0.3-2.1-1.7-1.7-3c0.3-1.3,1.7-2.1,3-1.7c0.7,0.2,1.3,0.7,1.6,1.3l1.5-0.7c-0.5-1-1.4-1.8-2.6-2.1c-2.2-0.6-4.4,0.7-5,2.8
	c-0.6,2.1,0.8,4.3,2.9,4.9c1.2,0.3,2.4,0.1,3.3-0.5L78.4,12.1z M88.5,14.8c0.6-1.2,0.1-2.7-1.1-3.3c-1.2-0.6-2.7-0.1-3.3,1.1
	c-0.6,1.2-0.1,2.7,1.1,3.3C86.4,16.5,87.9,16,88.5,14.8 M88.1,10.1c2,1,2.9,3.4,1.9,5.4c-1,2-3.4,2.7-5.5,1.7c-2-1-2.9-3.4-1.9-5.4
	C83.7,9.9,86.1,9.1,88.1,10.1 M96.5,15.7l-1.2-1l-4.6,5.9l4.6,3.6l0.9-1.1l-3.4-2.6L96.5,15.7z M104,22.3l-1-1.2l-5.5,5l3.9,4.3
	l1.1-1l-2.8-3.2L104,22.3z M103.1,32.6l3.1,4.9l1.2-0.8l-2.3-3.6l1.4-0.9l1.6,2.5l1.2-0.8l-1.6-2.5l1.3-0.8l2.3,3.6l1.2-0.8
	l-3.1-4.9L103.1,32.6z M111.5,41.9l0.9,2.2l-0.2,0.1c-0.7-0.2-1.3-0.7-1.6-1.5c-0.5-1.3,0.1-2.7,1.4-3.2c1.3-0.5,2.7,0.1,3.2,1.4
	c0.4,1.1-0.2,2.2-0.2,2.2l1.4,0.6l0.1-0.3c0.4-1,0.5-2.1,0.1-3.1c-0.8-2-3.2-3.1-5.2-2.3c-2,0.8-3,3.3-2.2,5.3
	c0.5,1.4,1.7,2.2,3.1,2.4l0.1,0l2-0.8l-1.5-3.6L111.5,41.9z M111.2,49.3l1.1,5.7l1.4-0.3l-0.8-4.2l1.6-0.3l0.6,2.9l1.4-0.3l-0.6-2.9
	l1.5-0.3l0.8,4.2l1.4-0.3l-1.1-5.7L111.2,49.3z M45.9,110l-3.6,1.8l0.7,1.5l1.9-1l-1.7,5.3l1.5,0.5l2.5-7.7L45.9,110z M55.7,117
	c0.6,0.1,1,0.4,0.9,1c0,0.5-0.5,0.8-1.1,0.8c-0.6-0.1-1-0.4-1-1C54.6,117.3,55.1,117,55.7,117 M56,113.6c0.6,0.1,1,0.4,0.9,1
	c-0.1,0.5-0.5,0.8-1.1,0.8c-0.6-0.1-1-0.4-1-1C54.9,113.8,55.4,113.5,56,113.6 M56.2,111.8c-1.5-0.1-2.7,0.7-2.9,2.1
	c-0.1,0.8,0.2,1.6,0.9,2.1c-0.8,0.3-1.2,1-1.3,1.9c-0.1,1.4,0.9,2.5,2.4,2.6c1.5,0.1,2.7-0.7,2.9-2.1c0.1-0.8-0.2-1.6-0.9-2.1
	c0.8-0.4,1.2-1.1,1.3-1.9C58.7,113,57.7,112,56.2,111.8 M64.5,112.9l0.2,1.5l3.6-0.4l-2.6,6.9l1.8-0.2l2.7-7.1l-0.2-1.3L64.5,112.9z
	 M82.4,113.1l-1.3,0.5l-1.4-3.8l-1.6,0.6l1.4,3.8l-2.1,0.7l0.5-2.2l-1.6,0.6l-0.5,2.2l0.5,1.5l3.6-1.3l0.8,2.4l1.6-0.6l-0.8-2.4
	l1.3-0.5L82.4,113.1z M125,62.5C125,28,97,0,62.5,0C28,0,0,28,0,62.5S28,125,62.5,125C97,125,125,97,125,62.5z M123.5,62.5
	c0,33.6-27.4,61-61,61c-33.6,0-61-27.4-61-61s27.4-61,61-61C96.1,1.5,123.5,28.9,123.5,62.5z M63.2,64.3c0.5-0.3,1.1-0.5,1.8-0.5
	h10.4V47.7H65c-1,0-1.8,0.8-1.8,1.8V64.3z M61.7,49.5c0-0.5-0.2-0.9-0.5-1.3c-0.3-0.3-0.8-0.5-1.3-0.5H49.5v16.1h10.4
	c0.6,0,1.3,0.2,1.8,0.5L61.7,49.5L61.7,49.5z M84.2,62.7c0,5.8-2.3,11.2-6.4,15.3L62.4,93.4L47,78c-4.1-4.1-6.4-9.5-6.4-15.3V40
	c3.2,1.6,6.8,2.5,10.5,2.5h0c3.9,0,7.8-1,11.2-2.9c3.4,1.9,7.3,2.9,11.3,2.9h0c3.7,0,7.3-0.9,10.5-2.5V62.7z M79.9,49.5h-1.5V68
	H63.2v-0.9c0-1,0.8-1.8,1.8-1.8h11.9V46.1H65c-1,0-1.9,0.5-2.6,1.2c-0.1-0.1-0.1-0.2-0.2-0.2c-0.6-0.6-1.5-1-2.3-1H48v19.2h11.9
	c0.5,0,0.9,0.2,1.3,0.5c0.3,0.3,0.5,0.8,0.5,1.3h0V68H46.4V49.5h-1.5v20h35V49.5z M65.5,101l-0.9,0.1l0.2,1.8l0.9-0.1
	c0.5,0,0.9-0.5,0.8-1C66.5,101.3,66,100.9,65.5,101z M36.3,90.8l-2.3,2.8l0.6,0.5c0.8,0.6,1.8,0.5,2.5-0.3c0.6-0.8,0.6-1.8-0.1-2.5
	L36.3,90.8z M110.4,62.5c0,26.4-21.5,47.9-47.9,47.9c-26.4,0-47.9-21.5-47.9-47.9c0-26.4,21.5-47.9,47.9-47.9
	C88.9,14.6,110.4,36.1,110.4,62.5z M83.3,31.3l3.7,2.8l0.7-0.9L85,31.1l0.8-1l1.9,1.5l0.7-0.9l-1.9-1.5l0.8-1l2.7,2.1l0.7-0.9
	l-3.7-2.8L83.3,31.3z M70.8,25.8l1.2,0.4l0.8-1l2.1,0.7l0.1,1.3l1.2,0.4l-0.4-6.4l-1-0.3L70.8,25.8z M67.9,25.4l1.2,0.2l1-5.8
	l-1.2-0.2L67.9,25.4z M61,20.2l2.1,0.1l-0.2,4.8l1.2,0l0.2-4.8l2.1,0.1l0-1.1L61,19.1L61,20.2z M53.7,20l0.9,5.8l1.2-0.2l-0.6-3.8
	l3,3.5l0,0l1.2-0.2l-0.9-5.8l-1.2,0.2l0.6,3.8l-3-3.5v0L53.7,20z M46,22.3l1.9,5.6l4.4-1.5l-0.4-1.1l-3.2,1.1l-0.4-1.2l2.3-0.7
	l-0.4-1.1l-2.3,0.7L47.5,23l3.2-1.1l-0.4-1.1L46,22.3z M41.6,24.5l2.7,5.2l1.1-0.6L42.6,24L41.6,24.5z M33.3,35.2
	c0.8-0.5,1-0.2,1.1-0.2c0.3,0.2,0.2,0.7,0,1c-0.3,0.3-0.9,0.5-1.1,0.2l-0.8,0.9c0.7,0.7,2,0.6,2.9-0.3c0.7-0.8,0.7-2,0-2.7
	c-0.4-0.4-1.2-0.9-2.6,0c-0.6,0.4-1,0.4-1.2,0.2c-0.3-0.3-0.2-0.6,0.1-1c0.4-0.4,0.9-0.5,1.1-0.2l0.8-0.9c-0.8-0.7-2-0.6-2.9,0.3
	c-0.8,0.8-0.8,2,0,2.7C31,35.7,31.9,36.1,33.3,35.2z M37.5,90.3l-1.4-1.2l-3.8,4.5l1.4,1.2c1.3,1.1,3.2,1,4.2-0.3
	C39,93.3,38.7,91.4,37.5,90.3z M40.5,32.2c0.8-0.6,1.2-1.4,1.3-2.3l-1.3-0.1c0,0.5-0.3,1.1-0.8,1.4c-0.9,0.6-2.1,0.4-2.7-0.4
	c-0.6-0.9-0.4-2.1,0.4-2.7c0.5-0.3,1-0.4,1.6-0.3l0.3-1.2c-0.9-0.2-1.8,0-2.6,0.6c-1.5,1-1.8,3-0.8,4.5
	C37.1,32.9,39.1,33.2,40.5,32.2z M42.9,94.3l-1-0.6l-3.1,5l1,0.6L42.9,94.3z M47.1,96.1c-1-0.4-2.1,0-2.5,0.9
	c-0.3,0.6-0.3,1.5,1,2.5c0.7,0.6,0.6,0.9,0.5,1c-0.1,0.3-0.5,0.5-0.9,0.3c-0.4-0.2-0.7-0.7-0.6-1l-1.1-0.5c-0.4,0.9,0.2,2.1,1.2,2.6
	c1,0.4,2.1,0,2.5-0.9c0.2-0.5,0.4-1.5-0.9-2.4c-0.5-0.4-0.8-0.8-0.6-1.1c0.1-0.3,0.5-0.4,0.9-0.3c0.5,0.2,0.8,0.7,0.6,1l1.1,0.5
	C48.8,97.7,48.3,96.6,47.1,96.1z M51.8,101.2c0.2-1,1.2-1.7,2.3-1.5c0.6,0.1,1,0.5,1.3,1l1.1-0.6c-0.4-0.8-1.2-1.3-2.1-1.5
	c-1.7-0.4-3.5,0.7-3.8,2.4s0.8,3.4,2.5,3.8c0.9,0.2,1.9,0,2.6-0.5l-0.8-1c-0.4,0.3-1,0.5-1.6,0.4C52.2,103.3,51.5,102.3,51.8,101.2z
	 M60.3,99.8l-1.2-0.1l-0.3,5.9l1.2,0.1L60.3,99.8z M63,95l15.9-15.9c4.4-4.4,6.8-10.2,6.8-16.4v-24l-1.1-0.7
	C81.3,40,77.5,41,73.7,41h0c-3.8,0-7.6-1-10.9-2.9H62C58.7,40,54.9,41,51.1,41h0c-3.8,0-7.6-1-10.9-2.9l-1.1,0.7v24
	c0,6.2,2.4,12,6.8,16.4L61.9,95H63z M67.8,101.7c-0.1-1.2-1.2-2-2.4-1.9l-2.1,0.2l0.6,5.9l1.2-0.1l-0.2-1.6l0.9-0.1
	C67,103.9,67.9,102.8,67.8,101.7z M76,103.6l-0.3-1.1l-3.2,0.9l-1.3-4.6l-1.2,0.3l1.6,5.7L76,103.6z M79.9,102.1l-2.4-5.4l-1.1,0.5
	l2.4,5.4L79.9,102.1z M87.7,97.6l-3.3-4.9l-1,0.7l2.1,3.2l-4.2-1.8l0,0l-1,0.7l3.3,4.9l1-0.7l-2.1-3.2l4.2,1.8l0,0L87.7,97.6z
	 M94.3,91.7l-5.8-2.6l-0.8,0.8l2.6,5.9l0.9-0.9l-0.5-1.2l1.6-1.6l1.2,0.6L94.3,91.7z M96.2,35.2l-3.6-4l-0.8,0.8l1.4,1.5l-3.5,3.2
	l0.8,0.9l3.5-3.2l1.4,1.5L96.2,35.2z M91.1,91.5l-1.7-0.8l0.8,1.8L91.1,91.5z M74.7,22.7l-1.2,1.5l1.3,0.4L74.7,22.7z"/>
</svg>
